<svg xmlns="http://www.w3.org/2000/svg" viewBox="0 0 512 512">
	<defs>
		<style>
			#user {
				stroke: white;
				stroke-width: 20;
				stroke-linejoin: round;
			}
			
			#moon-disk {
				fill: darkgrey;
				stroke: white;
				stroke-width: 0;
			}

			#moon-crescent {
				fill: gold;
			}
		</style>
	</defs>

	<g transform="translate(256, 256) scale(0.9) translate(-256, -256)">
		<g id="moon" transform="scale(30) translate(-3.25, -3.5)">
			<circle id="moon-disk" vector-effect="non-scaling-stroke" cx="12" cy="12" r="6.9" />

			<path id="moon-crescent" d="M180.9 257.8c-77.9 0-141.1-63.3-141.1-141.3C39.8 68.1 64 25.5 101 0 42.1 21.6 0 78.5 0 145.4 0 230.8 68.8 300 153.6 300c68.6 0 126.7-45.3 146.4-107.7-25 39.4-69 65.5-119.1 65.5z" transform="translate(12.1, 12.05) rotate(45) scale(0.045) translate(-160, -148) translate(4, 4)" />
		</g>
		
		<g id="user">
			<g transform="translate(50, 50)">
				<path d="M391.113, 426.667H35.554v-88.892c0-22.746, 8.678-45.495, 26.039-62.848 c17.353-17.357, 40.102-26.039, 62.848-26.039h177.783c22.75, 0, 45.495, 8.678, 62.852, 26.039 c17.353, 17.353, 26.035, 40.102, 26.035, 62.848V426.667z"/>
				<circle cx="215" cy="135" r="110"/>
			</g>
		</g>
	</g>
</svg>